<svg width="26" height="26" viewBox="0 0 26 26" fill="none" xmlns="http://www.w3.org/2000/svg">
<g clip-path="url(#clip0_1_222)">
<path d="M23.79 10.1111H22.3889V6.49999C22.3889 6.30844 22.3128 6.12474 22.1773 5.9893C22.0419 5.85386 21.8582 5.77777 21.6666 5.77777H4.33329C4.14175 5.77777 3.95805 5.70168 3.8226 5.56623C3.68716 5.43079 3.61107 5.24709 3.61107 5.05555C3.61107 4.864 3.68716 4.6803 3.8226 4.54486C3.95805 4.40941 4.14175 4.33332 4.33329 4.33332H21.3777C21.5693 4.33332 21.753 4.25723 21.8884 4.12179C22.0239 3.98635 22.1 3.80265 22.1 3.6111C22.1 3.41956 22.0239 3.23586 21.8884 3.10041C21.753 2.96497 21.5693 2.88888 21.3777 2.88888H4.33329C4.05444 2.88313 3.77718 2.93238 3.51736 3.03381C3.25755 3.13523 3.02026 3.28686 2.81905 3.48002C2.61784 3.67317 2.45667 3.90408 2.34472 4.15954C2.23278 4.41501 2.17226 4.69002 2.16663 4.96888V20.1355C2.16757 20.5279 2.2459 20.9161 2.39713 21.2781C2.54835 21.6401 2.7695 21.9687 3.04792 22.2451C3.32633 22.5215 3.65654 22.7403 4.01962 22.8889C4.38271 23.0375 4.77154 23.113 5.16385 23.1111H21.6666C21.8582 23.1111 22.0419 23.035 22.1773 22.8996C22.3128 22.7641 22.3889 22.5804 22.3889 22.3889V18.7778H23.79C23.8811 18.7847 23.9727 18.7729 24.0592 18.7431C24.1456 18.7134 24.2251 18.6663 24.2927 18.6048C24.3603 18.5433 24.4146 18.4686 24.4524 18.3853C24.4901 18.302 24.5105 18.2119 24.5122 18.1205V10.8983C24.5146 10.6998 24.4412 10.5079 24.307 10.3617C24.1728 10.2154 23.9879 10.1258 23.79 10.1111ZM23.1111 17.3333H16.9144C16.1743 17.307 15.4748 16.9879 14.9697 16.4463C14.4646 15.9046 14.1952 15.1846 14.2205 14.4444C14.1952 13.7042 14.4646 12.9843 14.9697 12.4426C15.4748 11.9009 16.1743 11.5819 16.9144 11.5555H23.1111V17.3333Z" fill="#2B2D2C"/>
<path d="M17.3623 15.47C17.9606 15.47 18.4456 14.985 18.4456 14.3867C18.4456 13.7884 17.9606 13.3033 17.3623 13.3033C16.764 13.3033 16.2789 13.7884 16.2789 14.3867C16.2789 14.985 16.764 15.47 17.3623 15.47Z" fill="#2B2D2C"/>
</g>
<defs>
<clipPath id="clip0_1_222">
<rect width="26" height="26" fill="white"/>
</clipPath>
</defs>
</svg>
